<svg id="Layer_1" data-name="Layer 1" xmlns="http://www.w3.org/2000/svg" viewBox="0 0 512 512"><defs><style>.cls-1{fill:#efeae6;}.cls-2{fill:#ffd38d;}.cls-3{fill:#6d4135;}</style></defs><title>eye-disabled-filled</title><path class="cls-1" d="M83,338,308.78,112.18A254.83,254.83,0,0,0,256,106.67C153.62,106.67,65,167.38,21.33,256A273.85,273.85,0,0,0,83,338Z"/><path class="cls-1" d="M365.15,131.22,126.43,369.95A254.44,254.44,0,0,0,256,405.33c102.38,0,191-60.71,234.67-149.33C463.64,201.09,419.31,156.9,365.15,131.22Z"/><path class="cls-2" d="M308,188.37,188.37,308A85.32,85.32,0,1,0,308,188.37Z"/><path class="cls-3" d="M67.76,353.2,98,323a251.36,251.36,0,0,1-52.64-67C88.41,176.77,168.21,128,256,128a234.94,234.94,0,0,1,34.42,2.54l36.11-36.11A277.28,277.28,0,0,0,256,85.33c-107.6,0-204.85,61.78-253.81,161.25a21.33,21.33,0,0,0,0,18.83A295.48,295.48,0,0,0,67.76,353.2Z"/><path class="cls-3" d="M410.1,132.07l95.65-95.65A21.33,21.33,0,1,0,475.58,6.25L6.25,475.58a21.33,21.33,0,1,0,30.17,30.17l104.2-104.2A276.58,276.58,0,0,0,256,426.67c107.6,0,204.85-61.78,253.81-161.25a21.33,21.33,0,0,0,0-18.83C486.31,198.83,451.67,159.78,410.1,132.07ZM320,256a64,64,0,0,1-91.57,57.74l85.31-85.31A63.55,63.55,0,0,1,320,256ZM256,384a233.77,233.77,0,0,1-82.74-15.09l24-24A106.61,106.61,0,0,0,345,197.21L379.19,163a247.63,247.63,0,0,1,87.46,93C423.59,335.23,343.79,384,256,384Z"/><path class="cls-3" d="M149.33,256a107.13,107.13,0,0,0,1,14.62L270.62,150.34A106.67,106.67,0,0,0,149.33,256Z"/></svg>